<svg version="1.2" xmlns="http://www.w3.org/2000/svg" viewBox="0 0 640 540" width="640" height="540"><style>.a{fill:#238359;stroke:#111823;paint-order:stroke fill markers;stroke-linejoin:round;stroke-width:16}.b{paint-order:stroke fill markers;stroke:#111823;stroke-width: 16;stroke-linejoin: round;;fill:#238359}</style><path fill-rule="evenodd" class="a" d="m454 89.5c-8.4 15.4-27.6 21.3-42.9 13-71.8-38.5-163.6-27-224.6 34-74.5 74.4-75.1 194.6-1.5 268.2 73.7 73.7 193.8 73 268.3-1.4 61-61 72.5-152.8 34-224.6-8.2-15.2-2.4-34.5 13-42.8 15.5-8.4 34.6-2.8 42.8 12.5 51.3 95.6 36.1 217.9-45.3 299.4-99.4 99.3-259.5 100.1-357.7 1.9-98.2-98.2-97.4-258.4 1.9-357.7 81.5-81.4 203.8-96.6 299.5-45.2 15.2 8.2 20.9 27.4 12.5 42.7z"/><path class="b" d="m395.1 208.9l68.2 118-33.8 19.4-14.5-25.2-10.7 39.8-88.5 51.1q-11.8 6.8-25.8 3.1-13.9-3.7-20.7-15.5l-85.2-147.5q-6.8-11.8-3.1-25.8 3.8-13.9 15.6-20.7l147.5-85.2 17 29.5-143.3 82.7 85.2 147.5 109.5-63.3-34-58.9-54.8 31.6 12.4-46.5z"/></svg>